<svg xmlns="http://www.w3.org/2000/svg" width="36" height="35" viewBox="0 0 36 35"><defs><style>.a{fill:#131313;stroke:#fff;}.b{fill:#fff;}.c{stroke:none;}.d{fill:none;}</style></defs><g class="a"><rect class="c" width="36" height="35" rx="6"/><rect class="d" x="0.5" y="0.5" width="35" height="34" rx="5.5"/></g><path class="b" d="M8.173,15a2.173,2.173,0,1,0,2.173,2.173A2.18,2.18,0,0,0,8.173,15Zm13.041,0a2.173,2.173,0,1,0,2.173,2.173A2.18,2.18,0,0,0,21.214,15Zm-6.52,0a2.173,2.173,0,1,0,2.173,2.173A2.18,2.18,0,0,0,14.694,15Z" transform="translate(3.101 0.4)"/></svg>