<svg xmlns="http://www.w3.org/2000/svg" width="50" height="50" viewBox="0 0 50 50"><defs><style>.a{fill:#131313;}.a,.c{stroke:#fff;}.b{fill:#fff;}.c,.e{fill:none;}.c{stroke-linecap:round;stroke-linejoin:round;stroke-width:0;}.d{stroke:none;}</style></defs><g class="a"><rect class="d" width="50" height="50" rx="6"/><rect class="e" x="0.5" y="0.5" width="49" height="49" rx="5.5"/></g><g transform="translate(10.607 10.611)"><path class="b" d="M73.416,20.476a2.656,2.656,0,0,1,1.1,2.134l.025.855L81.8,16.075a1.438,1.438,0,0,0,.141-1.9,1.413,1.413,0,0,0-2.1-.125Z" transform="translate(-65.685 -12.268)"/><path class="b" d="M1.772,63.77l.469-.546,1.279-9.3A2.663,2.663,0,0,1,5.6,51.43l-.037-1.305a1.395,1.395,0,0,0-2.79,0L1.438,59.864v0L.143,61.37a.591.591,0,0,0,.031.8Z" transform="translate(0 -43.662)"/><path class="b" d="M168.8,29.3a2.66,2.66,0,0,1,1.479.943,2.621,2.621,0,0,1,.5,1.06l.753-.753a1.438,1.438,0,0,0,.141-1.9,1.413,1.413,0,0,0-2.1-.125Z" transform="translate(-151.029 -25.221)"/><path class="b" d="M247.97,24.329a.629.629,0,0,0,.364-.116l1.578-1.117a.632.632,0,1,0-.73-1.031L247.6,23.182a.632.632,0,0,0,.365,1.148Z" transform="translate(-221.292 -19.701)"/><path class="b" d="M228.608,3.633a.631.631,0,0,0,.814-.369l.68-1.809a.632.632,0,1,0-1.183-.445l-.68,1.809A.632.632,0,0,0,228.608,3.633Z" transform="translate(-204.169 -0.6)"/><path class="b" d="M257.459,55.623h-.013l-1.932.016a.614.614,0,0,0-.619.623.636.636,0,0,0,.632.624h.013l1.932-.033a.625.625,0,0,0,.619-.637A.611.611,0,0,0,257.459,55.623Z" transform="translate(-228.054 -49.829)"/><path class="b" d="M42.094,63.938a1.413,1.413,0,0,0-.125-2.1,1.367,1.367,0,0,0-.854-.294,1.483,1.483,0,0,0-1.045.435l-3.156,3.156a.651.651,0,0,1-.92,0l-.008-.008a.7.7,0,0,1,0-1l5.091-5.091a1.438,1.438,0,0,0,.141-1.9,1.413,1.413,0,0,0-2.1-.125l-5.14,5.14a.678.678,0,0,1-.959,0,.689.689,0,0,1,0-.974l6.537-6.537a1.438,1.438,0,0,0,.141-1.9,1.413,1.413,0,0,0-2.1-.125l-6.568,6.568a.683.683,0,0,1-.972-.96l5.109-5.109a1.438,1.438,0,0,0,.141-1.9,1.413,1.413,0,0,0-2.1-.125L25.78,58.512a.635.635,0,0,1-.454.191.647.647,0,0,1-.652-.63l-.066-2.3a1.395,1.395,0,1,0-2.79,0l-1.339,9.739v0l-1.293,1.5a.591.591,0,0,0,.031.8l7.336,7.325a.591.591,0,0,0,.778.05l1.649-1.266a.6.6,0,0,1,.239-.11c2.86-.623,6.116-3.123,9.23-6.238Z" transform="translate(-17.037 -45.41)"/><line class="c" transform="translate(17.157 4.01)"/></g></svg>