<svg xmlns="http://www.w3.org/2000/svg" width="36" height="36" viewBox="0 0 36 36"><defs><style>.a{fill:#131313;stroke:#fff;}.b{fill:#fff;}.c{stroke:none;}.d{fill:none;}</style></defs><g transform="translate(0 0.382)"><g class="a" transform="translate(0 -0.382)"><rect class="c" width="36" height="36" rx="6"/><rect class="d" x="0.5" y="0.5" width="35" height="35" rx="5.5"/></g><path class="b" d="M23.323,8.642c.016.231.016.462.016.693A15.054,15.054,0,0,1,8.181,24.493,15.055,15.055,0,0,1,0,22.1a11.022,11.022,0,0,0,1.287.066A10.67,10.67,0,0,0,7.9,19.892,5.337,5.337,0,0,1,2.919,16.2a6.718,6.718,0,0,0,1.006.082,5.635,5.635,0,0,0,1.4-.181,5.328,5.328,0,0,1-4.272-5.229V10.8a5.365,5.365,0,0,0,2.408.676A5.336,5.336,0,0,1,1.814,4.354,15.144,15.144,0,0,0,12.8,9.929a6.014,6.014,0,0,1-.132-1.221,5.333,5.333,0,0,1,9.22-3.645,10.489,10.489,0,0,0,3.381-1.287,5.313,5.313,0,0,1-2.342,2.936,10.68,10.68,0,0,0,3.068-.825,11.452,11.452,0,0,1-2.672,2.754Z" transform="translate(5.067 3.965)"/></g></svg>