<svg xmlns="http://www.w3.org/2000/svg" width="51" height="50" viewBox="0 0 51 50"><defs><style>.a{fill:#131313;stroke:#fff;}.b{fill:#fff;}.c{stroke:none;}.d{fill:none;}</style></defs><g transform="translate(0.439 -0.487)"><g class="a" transform="translate(-0.439 0.487)"><rect class="c" width="51" height="50" rx="6"/><rect class="d" x="0.5" y="0.5" width="50" height="49" rx="5.5"/></g><path class="b" d="M9.1,15a3.1,3.1,0,1,0,3.1,3.1A3.114,3.114,0,0,0,9.1,15Zm18.63,0a3.1,3.1,0,1,0,3.1,3.1A3.114,3.114,0,0,0,27.734,15ZM18.42,15a3.1,3.1,0,1,0,3.1,3.1A3.114,3.114,0,0,0,18.42,15Z" transform="translate(6.561 7.487)"/></g></svg>