<svg xmlns="http://www.w3.org/2000/svg" width="36" height="36" viewBox="0 0 36 36"><defs><style>.a{fill:#0076b4;}.b{fill:#fff;}</style></defs><g transform="translate(-1518 -275)"><rect class="a" width="36" height="36" rx="6" transform="translate(1518 275)"/><path class="b" d="M4.629,20.681H.342V6.874H4.629ZM2.483,4.99A2.495,2.495,0,1,1,4.966,2.484,2.5,2.5,0,0,1,2.483,4.99ZM20.676,20.681H16.4V13.96c0-1.6-.032-3.656-2.229-3.656-2.229,0-2.571,1.74-2.571,3.541v6.837H7.315V6.874h4.112V8.757h.06a4.505,4.505,0,0,1,4.057-2.23c4.339,0,5.137,2.857,5.137,6.569v7.585Z" transform="translate(1525.89 282.889)"/></g></svg>