<svg xmlns="http://www.w3.org/2000/svg" width="51" height="50" viewBox="0 0 51 50"><defs><style>.a{fill:#131313;stroke:#fff;}.b{fill:#fff;}.c{stroke:none;}.d{fill:none;}</style></defs><g transform="translate(0.439 -0.487)"><g class="a" transform="translate(-0.439 0.487)"><rect class="c" width="51" height="50" rx="6"/><rect class="d" x="0.5" y="0.5" width="50" height="49" rx="5.5"/></g><g transform="translate(11.416 11.416)"><path class="b" d="M8.915,24.838a3.41,3.41,0,0,1-2.927-2.927V11.25H5.361a1.993,1.993,0,0,0-1.986,1.986V31.109L7.2,27.32H21.248A2.017,2.017,0,0,0,23.234,25.3v-.464Z" transform="translate(-3.375 -3.933)"/><path class="b" d="M28.605,3.375H10.366a2.286,2.286,0,0,0-2.28,2.28v14.77a2.292,2.292,0,0,0,2.28,2.286H25.927l4.958,3.462V5.655A2.286,2.286,0,0,0,28.605,3.375Z" transform="translate(-3.709 -3.375)"/></g></g></svg>