<svg xmlns="http://www.w3.org/2000/svg" width="36" height="36" viewBox="0 0 36 36"><defs><style>.a{fill:#131313;stroke:#fff;}.b{fill:#fff;}.c{stroke:none;}.d{fill:none;}</style></defs><g transform="translate(0 0.382)"><g class="a" transform="translate(0 -0.382)"><rect class="c" width="36" height="36" rx="6"/><rect class="d" x="0.5" y="0.5" width="35" height="35" rx="5.5"/></g><path class="b" d="M11.376,7.781a5.834,5.834,0,1,0,5.834,5.834A5.824,5.824,0,0,0,11.376,7.781Zm0,9.626a3.793,3.793,0,1,1,3.793-3.793A3.8,3.8,0,0,1,11.376,17.407Zm7.433-9.865a1.361,1.361,0,1,1-1.361-1.361A1.358,1.358,0,0,1,18.809,7.542Zm3.864,1.381a6.734,6.734,0,0,0-1.838-4.767,6.778,6.778,0,0,0-4.767-1.838c-1.879-.107-7.509-.107-9.388,0A6.768,6.768,0,0,0,1.913,4.151,6.756,6.756,0,0,0,.075,8.918c-.107,1.879-.107,7.509,0,9.388a6.734,6.734,0,0,0,1.838,4.767A6.787,6.787,0,0,0,6.68,24.911c1.879.107,7.509.107,9.388,0a6.734,6.734,0,0,0,4.767-1.838,6.778,6.778,0,0,0,1.838-4.767c.107-1.879.107-7.5,0-9.383Zm-2.427,11.4a3.84,3.84,0,0,1-2.163,2.163c-1.5.594-5.052.457-6.707.457s-5.214.132-6.707-.457a3.84,3.84,0,0,1-2.163-2.163c-.594-1.5-.457-5.052-.457-6.707S1.918,8.4,2.507,6.907A3.84,3.84,0,0,1,4.67,4.745c1.5-.594,5.052-.457,6.707-.457s5.214-.132,6.707.457a3.84,3.84,0,0,1,2.163,2.163c.594,1.5.457,5.052.457,6.707S20.84,18.829,20.246,20.321Z" transform="translate(6.744 4.188)"/></g></svg>