<svg xmlns="http://www.w3.org/2000/svg" width="36" height="36" viewBox="0 0 36 36"><defs><style>.a{fill:#131313;stroke:#fff;}.b{fill:#fff;}.c{stroke:none;}.d{fill:none;}</style></defs><g transform="translate(0 0.382)"><g class="a" transform="translate(0 -0.382)"><rect class="c" width="36" height="36" rx="6"/><rect class="d" x="0.5" y="0.5" width="35" height="35" rx="5.5"/></g><path class="b" d="M22.829,5.625H4.416A2.173,2.173,0,0,0,2.25,7.791V21.33A2.173,2.173,0,0,0,4.416,23.5H22.829A2.173,2.173,0,0,0,25,21.33V7.791A2.173,2.173,0,0,0,22.829,5.625Zm-.271,4.6-8.936,5.957L4.687,10.228V8.062l8.936,5.957,8.936-5.957Z" transform="translate(4.32 3.561)"/></g></svg>